# xmcd
#
# Track frame offsets:
#	150
#	32450
#	55958
#	79436
#	100357
#	139060
#	162938
#	189579
#	222040
#
# Disc length: 3646 seconds
#
# Revision: 1
# Processed by: cddbd v1.5.1PL2 Copyright (c) Steve Scherf et al.
# Submitted via: audiograbber 1.83.01
#
DISCID=790e3c09
DTITLE=Raphael Wressnig - In Between
DYEAR=2004
DGENRE=Jazz
TTITLE0=Cherokee
TTITLE1=Village
TTITLE2=Mudslide
TTITLE3=Hello Birdie
TTITLE4=Fancy Free
TTITLE5=Lightflight
TTITLE6=Party At The Zoo
TTITLE7=Dance On The Vulcano
TTITLE8=Vinny´s Blues
EXTD=YEAR: 2004
EXTT0=
EXTT1=
EXTT2=
EXTT3=
EXTT4=
EXTT5=
EXTT6=
EXTT7=
EXTT8=
PLAYORDER=
